<svg xmlns="http://www.w3.org/2000/svg" version="1.1" xmlns:xlink="http://www.w3.org/1999/xlink" xmlns:svgjs="http://svgjs.dev/svgjs" width="1000" height="1125" viewBox="0 0 1000 1125"><g transform="matrix(1,0,0,1,0.0011008540699322111,0)"><svg viewBox="0 0 320 360" data-background-color="#61777f" preserveAspectRatio="xMidYMid meet" height="1125" width="1000" xmlns="http://www.w3.org/2000/svg" xmlns:xlink="http://www.w3.org/1999/xlink"><g id="tight-bounds" transform="matrix(1,0,0,1,0.00010353528136874957,0)"><svg viewBox="0 0 320 360" height="360" width="320"><g><svg></svg></g><g><svg viewBox="0 0 320 360" height="360" width="320"><g><path xmlns="http://www.w3.org/2000/svg" d="M307.925 179.999l6.575-11.387c11.322-19.607 4.604-44.679-15.003-56.001l-11.387-6.575v-13.151c0-22.639-18.354-40.994-40.994-40.994h-13.151l-6.575-11.387c-11.322-19.607-36.393-26.325-56.001-15.003l-11.39 6.572-11.387-6.576c-19.607-11.318-44.679-4.6-56.001 15.007l-6.575 11.387h-13.151c-22.639 0-40.994 18.354-40.994 40.994v13.151l-11.387 6.575c-19.607 11.322-26.325 36.393-15.003 56.001l6.572 11.387-6.576 11.387c-11.318 19.607-4.6 44.679 15.007 56l11.387 6.576v13.15c0 22.639 18.354 40.994 40.994 40.994h13.151l6.575 11.387c11.322 19.607 36.393 26.325 56.001 15.003l11.387-6.571 11.387 6.575c19.607 11.322 44.679 4.604 56-15.003l6.576-11.387h13.15c22.639 0 40.994-18.354 40.994-40.994v-13.151l11.387-6.575c19.607-11.322 26.325-36.393 15.003-56.001zM297.702 115.716c8.655 4.996 14.842 13.062 17.428 22.713 2.586 9.65 1.261 19.734-3.735 28.384l-5.538 9.596-17.747-30.74v-35.494zM251.155 271.155l-57.791 33.365h-66.731l-57.791-33.365-33.365-57.791v-66.731l33.365-57.791 57.791-33.365h66.731l57.791 33.365 33.365 57.791v66.731zM284.517 220.539v31.351l-27.151 15.676zM247.566 277.366l-15.676 27.151h-31.351zM187.15 308.106l-27.151 15.676-27.151-15.676zM119.459 304.517h-31.352l-15.676-27.151zM62.632 267.566l-27.151-15.676v-31.351zM31.891 207.15l-15.675-27.151 15.675-27.151zM35.481 139.459v-31.352l27.151-15.676zM72.431 82.632l15.676-27.151h31.352zM132.848 51.891l27.151-15.675 27.151 15.675zM200.539 55.481h31.351l15.676 27.151zM257.366 92.431l27.151 15.676v31.352zM288.106 152.848l15.676 27.151-15.676 27.151zM247.112 55.481c9.992 0 19.384 3.889 26.452 10.956 7.063 7.063 10.956 16.46 10.957 26.452v11.079l-30.741-17.747-17.747-30.74zM173.18 28.606c8.655-4.996 18.735-6.322 28.385-3.735 9.65 2.586 17.716 8.777 22.712 17.428l5.538 9.596h-35.494l-30.741-17.747zM95.716 42.295c4.996-8.655 13.062-14.842 22.713-17.428 9.65-2.586 19.734-1.261 28.384 3.736l9.596 5.537-30.74 17.747h-35.494zM35.481 92.885c0-9.992 3.889-19.384 10.956-26.452 7.063-7.063 16.46-10.956 26.452-10.956h11.079l-17.747 30.74-30.74 17.747zM8.606 166.817c-4.996-8.655-6.322-18.735-3.735-28.385 2.586-9.65 8.777-17.716 17.428-22.712l9.596-5.538v35.495l-17.747 30.74zM22.295 244.281c-8.655-4.996-14.842-13.062-17.428-22.712-2.586-9.65-1.261-19.734 3.736-28.385l5.537-9.596 17.747 30.74v35.495zM72.885 304.517c-9.992 0-19.384-3.889-26.452-10.957-7.063-7.063-10.956-16.46-10.956-26.451v-11.08l30.74 17.747 17.747 30.741zM146.817 331.391c-8.655 4.996-18.735 6.322-28.385 3.735-9.65-2.586-17.716-8.777-22.712-17.428l-5.538-9.596h35.495l30.74 17.747zM224.281 317.702c-4.996 8.655-13.062 14.842-22.712 17.428-9.65 2.586-19.734 1.261-28.385-3.735l-9.596-5.538 30.74-17.747h35.495zM284.517 267.112c0 9.992-3.889 19.384-10.957 26.452-7.063 7.063-16.46 10.956-26.451 10.957h-11.08l17.747-30.741 30.741-17.747zM315.13 221.565c-2.586 9.65-8.777 17.716-17.428 22.712l-9.596 5.538v-35.494l17.747-30.741 5.538 9.596c4.996 8.658 6.326 18.739 3.739 28.389z" fill="#000000" fill-rule="nonzero" stroke="none" stroke-width="1" stroke-linecap="butt" stroke-linejoin="miter" stroke-miterlimit="10" stroke-dasharray="" stroke-dashoffset="0" font-family="none" font-weight="none" font-size="none" text-anchor="none" style="mix-blend-mode: normal" data-fill-palette-color="tertiary"></path></g><g transform="matrix(1,0,0,1,64,123.111149563786)"><svg viewBox="0 0 192 113.777700872428" height="113.777700872428" width="192"><g><svg viewBox="0 0 192 113.777700872428" height="113.777700872428" width="192"><g><svg viewBox="0 0 192 113.777700872428" height="113.777700872428" width="192"><g><svg viewBox="0 0 192 113.777700872428" height="113.777700872428" width="192"><g><svg viewBox="0 0 192 113.777700872428" height="113.777700872428" width="192"><g><svg viewBox="0 0 192 61.366255144032934" height="61.366255144032934" width="192"><g transform="matrix(1,0,0,1,0,0)"><svg width="192" viewBox="2.950000047683716 -34.29999923706055 109.34000396728516 34.95000076293945" height="61.366255144032934" data-palette-color="#000000"><path d="M14.9-22.65Q12-22.65 9.65-21.23 7.3-19.8 5.95-17.25 4.6-14.7 4.6-11.5L4.6-11.5Q4.6-8.35 6.1-5.95 7.6-3.55 9.98-2.25 12.35-0.95 14.9-0.9L14.9-0.9Q17.9-0.8 20.13-1.93 22.35-3.05 24.2-5.05L24.2-5.05 25.3-3.95Q23.15-1.8 20.73-0.58 18.3 0.65 14.9 0.65L14.9 0.65Q12 0.65 9.22-0.78 6.45-2.2 4.7-4.98 2.95-7.75 2.95-11.5L2.95-11.5Q2.95-15.05 4.53-17.95 6.1-20.85 8.78-22.53 11.45-24.2 14.7-24.2L14.7-24.2Q17.8-24.2 20.15-22.9 22.5-21.6 23.85-19.25L23.85-19.25 23.85-23.55 25.4-23.55 25.4-15.75 24.65-15.6Q23.3-19.2 20.9-20.93 18.5-22.65 14.9-22.65L14.9-22.65ZM56.25-1.55L61.7-1.55 61.7 0 49.65 0 49.65-1.55 54.6-1.55 54.6-15.15Q54.6-22.7 48.25-22.7L48.25-22.7Q45.55-22.7 42.57-20.93 39.6-19.15 36.75-16.15L36.75-16.15 36.75-1.55 41.7-1.55 41.7 0 29.05 0 29.05-1.55 35.1-1.55 35.1-32.8 29.05-32.8 29.05-34.3 36.75-34.3 36.75-17.7Q39.6-20.7 42.52-22.45 45.45-24.2 48.6-24.2L48.6-24.2Q52.15-24.2 54.2-22 56.25-19.8 56.25-15.45L56.25-15.45 56.25-1.55ZM90.45-1.85L90.95-0.45Q89.85 0.35 88.3 0.35L88.3 0.35Q86.75 0.35 85.82-0.68 84.9-1.7 84.65-3.65L84.65-3.65Q78.65 0.65 74.35 0.65L74.35 0.65Q72.05 0.65 70.07-0.2 68.1-1.05 66.92-2.7 65.75-4.35 65.75-6.6L65.75-6.6Q65.75-8.8 67-10.5 68.25-12.2 70.5-13.15 72.75-14.1 75.6-14.1L75.6-14.1Q77.9-14.1 80-13.68 82.1-13.25 84.6-12.45L84.6-12.45 84.6-15.4Q84.6-19.25 82.67-20.95 80.75-22.65 77.6-22.65L77.6-22.65Q74.95-22.65 72.57-22 70.2-21.35 67.55-20.2L67.55-20.2 67.1-21.75Q72.65-24.2 77.6-24.2L77.6-24.2Q81.45-24.2 83.85-22.1 86.25-20 86.25-15.4L86.25-15.4 86.25-4.85Q86.25-3 86.8-2.1 87.35-1.2 88.5-1.2L88.5-1.2Q89.25-1.2 90.45-1.85L90.45-1.85ZM67.4-6.6Q67.4-3.9 69.42-2.4 71.45-0.9 74.35-0.9L74.35-0.9Q78.9-0.9 84.6-5.15L84.6-5.15 84.6-10.9Q79.75-12.55 75.45-12.55L75.45-12.55Q72.1-12.55 69.75-10.98 67.4-9.4 67.4-6.6L67.4-6.6ZM111.59-2.7L112.29-1.3Q110.24-0.35 108.77 0.15 107.29 0.65 105.34 0.65L105.34 0.65Q102.29 0.65 100.34-1.25 98.39-3.15 98.39-7.2L98.39-7.2 98.39-22 92.34-22 92.34-23.55 98.39-23.55 98.39-30.1 100.04-30.1 100.04-23.55 109.24-23.55 109.24-22 100.04-22 100.04-7.05Q100.04-3.65 101.59-2.27 103.14-0.9 105.34-0.9L105.34-0.9Q107.09-0.9 108.59-1.38 110.09-1.85 111.59-2.7L111.59-2.7Z" opacity="1" transform="matrix(1,0,0,1,0,0)" fill="#000000" class="undefined-text-0" data-fill-palette-color="primary" id="text-0"></path></svg></g></svg></g><g transform="matrix(1,0,0,1,0,75.85335519341565)"><svg viewBox="0 0 192 37.924345679012355" height="37.924345679012355" width="192"><g transform="matrix(1,0,0,1,0,0)"><svg width="192" viewBox="2.3499999046325684 -37.5 191.3699951171875 37.79999923706055" height="37.924345679012355" data-palette-color="#d2d6dc"><path d="M2.35-34.3L7.35-35 7.35-8Q7.35-7.5 7.4-6.75 7.45-6 7.68-5.28 7.9-4.55 8.35-4.03 8.8-3.5 9.6-3.5L9.6-3.5Q12.05-3.5 13.2-8.95L13.2-8.95 15.05-8.95Q14.5-5.8 13.65-3.98 12.8-2.15 11.85-1.2 10.9-0.25 9.9 0.03 8.9 0.3 8.1 0.3L8.1 0.3Q6.35 0.3 5.25-0.38 4.15-1.05 3.5-2.1 2.85-3.15 2.6-4.45 2.35-5.75 2.35-6.95L2.35-6.95 2.35-34.3ZM33.59-18.75L33.59-18.75Q33.59-15.25 30.72-12.9 27.84-10.55 22.74-10L22.74-10Q22.94-8 23.47-6.75 23.99-5.5 24.74-4.78 25.49-4.05 26.47-3.78 27.44-3.5 28.49-3.5L28.49-3.5Q30.89-3.5 32.99-4.75 35.09-6 36.39-8.95L36.39-8.95 37.99-8.95Q37.34-7.1 36.19-5.43 35.04-3.75 33.49-2.48 31.94-1.2 30.14-0.45 28.34 0.3 26.44 0.3L26.44 0.3Q24.69 0.3 23.07-0.3 21.44-0.9 20.19-2.27 18.94-3.65 18.17-5.85 17.39-8.05 17.39-11.25L17.39-11.25Q17.39-13.35 17.87-15.8 18.34-18.25 19.47-20.35 20.59-22.45 22.42-23.85 24.24-25.25 26.94-25.25L26.94-25.25Q28.19-25.25 29.37-24.98 30.54-24.7 31.49-23.98 32.44-23.25 33.02-22 33.59-20.75 33.59-18.75ZM22.69-11.95L22.69-11.95Q26.24-12.5 28.32-14.45 30.39-16.4 30.39-19.25L30.39-19.25Q30.39-21.15 29.74-21.98 29.09-22.8 27.89-22.8L27.89-22.8Q26.59-22.8 25.62-21.8 24.64-20.8 23.99-19.23 23.34-17.65 23.02-15.73 22.69-13.8 22.69-11.95ZM41.23-31.9L46.23-32.6 46.23-25 50.08-25 50.08-23.25 46.23-23.25 46.23-8Q46.23-7.4 46.28-6.63 46.33-5.85 46.56-5.15 46.78-4.45 47.26-3.98 47.73-3.5 48.58-3.5L48.58-3.5Q49.93-3.5 51.16-4.85 52.38-6.2 53.08-8.95L53.08-8.95 54.93-8.95Q54.08-5.8 53.11-3.98 52.13-2.15 51.08-1.2 50.03-0.25 49.01 0.03 47.98 0.3 47.13 0.3L47.13 0.3Q45.33 0.3 44.18-0.38 43.03-1.05 42.38-2.1 41.73-3.15 41.48-4.42 41.23-5.7 41.23-6.95L41.23-6.95 41.23-23.25 39.53-23.25 39.53-25 41.23-25 41.23-31.9ZM57.57-28.05L58.62-37.5 62.87-37.5 60.32-28.05 57.57-28.05ZM87.16-8.95L89.26-8.95Q87.81-6.95 86.29-5.63 84.76-4.3 83.31-3.3L83.31-3.3Q82.76-2.3 81.91-1.63 81.06-0.95 80.09-0.53 79.11-0.1 78.14 0.1 77.16 0.3 76.36 0.3L76.36 0.3Q74.16 0.3 72.74-0.4 71.31-1.1 70.46-2.18 69.61-3.25 69.26-4.58 68.91-5.9 68.91-7.1L68.91-7.1Q68.91-8.4 69.44-9.38 69.96-10.35 70.71-10.75L70.71-10.75Q72.01-14.5 73.26-18.18 74.51-21.85 74.91-25.55L74.91-25.55 79.96-26.55Q81.16-21.8 81.94-18.8 82.71-15.8 83.19-13.73 83.66-11.65 83.89-10.08 84.11-8.5 84.11-6.6L84.11-6.6Q84.96-7.15 85.71-7.78 86.46-8.4 87.16-8.95L87.16-8.95ZM78.81-6.95L78.81-6.95Q78.81-8.5 78.64-9.7 78.46-10.9 78.11-12.35 77.76-13.8 77.24-15.88 76.71-17.95 76.01-21.2L76.01-21.2Q75.71-18.4 74.79-15.85 73.86-13.3 73.11-10.6L73.11-10.6Q73.56-10.3 73.89-9.78 74.21-9.25 74.21-8.4L74.21-8.4Q74.21-7.45 73.71-6.95 73.21-6.45 72.61-6.45L72.61-6.45Q71.81-6.45 71.26-7.15L71.26-7.15Q71.66-5.4 72.66-4.42 73.66-3.45 75.31-3.45L75.31-3.45Q76.91-3.45 77.86-4.28 78.81-5.1 78.81-6.95ZM107.6-31.9L112.6-32.6 112.6-25 116.45-25 116.45-23.25 112.6-23.25 112.6-8Q112.6-7.4 112.65-6.63 112.7-5.85 112.92-5.15 113.15-4.45 113.62-3.98 114.1-3.5 114.95-3.5L114.95-3.5Q116.3-3.5 117.52-4.85 118.75-6.2 119.45-8.95L119.45-8.95 121.3-8.95Q120.45-5.8 119.47-3.98 118.5-2.15 117.45-1.2 116.4-0.25 115.37 0.03 114.35 0.3 113.5 0.3L113.5 0.3Q111.7 0.3 110.55-0.38 109.4-1.05 108.75-2.1 108.1-3.15 107.85-4.42 107.6-5.7 107.6-6.95L107.6-6.95 107.6-23.25 105.9-23.25 105.9-25 107.6-25 107.6-31.9ZM137.64-25L142.64-25 142.64-8Q142.64-7.5 142.69-6.75 142.74-6 142.96-5.28 143.19-4.55 143.64-4.03 144.09-3.5 144.89-3.5L144.89-3.5Q147.34-3.5 148.49-8.95L148.49-8.95 150.34-8.95Q149.79-5.8 148.94-3.98 148.09-2.15 147.14-1.2 146.19-0.25 145.19 0.03 144.19 0.3 143.39 0.3L143.39 0.3Q142.24 0.3 141.41-0.1 140.59-0.5 140.01-1.15 139.44-1.8 139.09-2.65 138.74-3.5 138.54-4.45L138.54-4.45Q137.79-2.5 136.11-1.1 134.44 0.3 132.04 0.3L132.04 0.3Q130.54 0.3 129.01-0.3 127.49-0.9 126.26-2.27 125.04-3.65 124.26-5.83 123.49-8 123.49-11.15L123.49-11.15Q123.49-13.45 124.01-15.95 124.54-18.45 125.69-20.5 126.84-22.55 128.64-23.9 130.44-25.25 132.99-25.25L132.99-25.25Q133.59-25.25 134.26-25.13 134.94-25 135.56-24.7 136.19-24.4 136.74-23.88 137.29-23.35 137.64-22.6L137.64-22.6 137.64-25ZM133.29-3.5L133.29-3.5Q134.04-3.5 134.81-3.93 135.59-4.35 136.21-5.08 136.84-5.8 137.24-6.8 137.64-7.8 137.64-8.95L137.64-8.95 137.64-20.35Q137.29-21.15 136.56-21.83 135.84-22.5 134.69-22.5L134.69-22.5Q133.09-22.5 131.94-21.43 130.79-20.35 130.09-18.73 129.39-17.1 129.06-15.18 128.74-13.25 128.74-11.5L128.74-11.5Q128.74-7.2 129.91-5.35 131.09-3.5 133.29-3.5ZM153.33-34.3L158.33-35 158.33-8Q158.33-7.5 158.38-6.75 158.43-6 158.65-5.28 158.88-4.55 159.33-4.03 159.78-3.5 160.58-3.5L160.58-3.5Q163.03-3.5 164.18-8.95L164.18-8.95 166.03-8.95Q165.48-5.8 164.63-3.98 163.78-2.15 162.83-1.2 161.88-0.25 160.88 0.03 159.88 0.3 159.08 0.3L159.08 0.3Q157.33 0.3 156.23-0.38 155.13-1.05 154.48-2.1 153.83-3.15 153.58-4.45 153.33-5.75 153.33-6.95L153.33-6.95 153.33-34.3ZM168.92-34.3L173.92-35 173.92-16.85 182.52-25 187.37-25 179.02-18.25 179.52-18.25Q181.77-18.25 183.1-17.5 184.42-16.75 185.15-15.58 185.87-14.4 186.1-13.03 186.32-11.65 186.32-10.45L186.32-10.45Q186.32-9.95 186.3-9.33 186.27-8.7 186.25-8.08 186.22-7.45 186.2-6.93 186.17-6.4 186.17-6.1L186.17-6.1Q186.17-5.75 186.22-5.3 186.27-4.85 186.47-4.45 186.67-4.05 187.07-3.78 187.47-3.5 188.12-3.5L188.12-3.5Q189.42-3.5 190.35-4.8 191.27-6.1 191.87-8.95L191.87-8.95 193.72-8.95Q193.12-5.7 192.27-3.88 191.42-2.05 190.45-1.1 189.47-0.15 188.5 0.08 187.52 0.3 186.77 0.3L186.77 0.3Q185.27 0.3 184.2-0.15 183.12-0.6 182.45-1.38 181.77-2.15 181.45-3.2 181.12-4.25 181.12-5.4L181.12-5.4Q181.12-5.6 181.12-6.28 181.12-6.95 181.15-7.7 181.17-8.45 181.17-9.13 181.17-9.8 181.17-10.05L181.17-10.05Q181.17-12.65 180.22-13.55 179.27-14.45 178.02-14.45L178.02-14.45Q176.72-14.45 175.7-13.6 174.67-12.75 173.92-10.6L173.92-10.6 173.92 0 168.92 0 168.92-34.3Z" opacity="1" transform="matrix(1,0,0,1,0,0)" fill="#d2d6dc" class="undefined-text-1" data-fill-palette-color="secondary" id="text-1"></path></svg></g></svg></g></svg></g></svg></g></svg></g></svg></g></svg></g></svg></g><defs></defs></svg><rect width="320" height="360" fill="none" stroke="none" visibility="hidden"></rect></g></svg></g></svg>